<svg xmlns="http://www.w3.org/2000/svg" xmlns:xlink="http://www.w3.org/1999/xlink" style="vertical-align:-1.88ex" width="17.05ex" height="5.259ex" viewBox="0 -1455.1 7340.8 2264.4"><defs><path id="a" stroke-width="1" d="M48 1Q31 1 31 11q0 2 3 14 4 16 8 18t23 3q27 0 60 3 14 3 19 12 2 5 71 281t70 280q0 7-4 7-8 3-53 5h-31q-6 6-6 8t2 17q4 17 10 21h539q7-4 7-11 0-5-13-112t-14-110q-2-7-20-7h-12q-7 5-7 13 0 1 3 24t3 53q0 30-7 49t-19 31-37 16-51 7-72 1h-23q-82-1-87-3t-7-8q-1-1-34-131l-32-129h78q20 0 28 1t22 3 24 7 17 12q13 12 22 33t13 38 5 18q3 5 19 5h12q7-5 7-10 0-3-31-131t-34-132q-2-7-20-7h-12q-7 6-7 12 0 3 5 22t5 40q0 29-20 36t-89 7h-55l-32-127Q245 66 245 60q0-14 89-14h25q6-6 6-7t-2-20q-4-13-10-19h-17q-41 2-151 2H86Q52 2 48 1z"/><path id="b" stroke-width="1" d="M56 347q0 13 14 20h637q15-8 15-20 0-11-14-19l-318-1H72q-16 5-16 20zm0-194q0 15 16 20h636q14-10 14-20 0-13-15-20H70q-14 7-14 20z"/><path id="c" stroke-width="1" d="M50 252q0 115 67 221t169 168 204 63q90 0 143-51 9-10 15-17t8-10l1-3q3 0 27 26 7 6 15 14t16 16 10 11l15 15h6q14 0 14-7 0-4-32-137-36-139-36-140-2-5-5-6t-18-2h-16q-6 6-6 9 0 1 1 7t2 20 1 32q0 71-32 124t-109 54q-18 0-39-3t-53-13-61-28-63-48-58-71-47-102-31-134q-2-18-2-39 0-48 14-85t36-57 50-34 52-17 45-4q54 0 99 23t62 59q3 8 15 55t12 53q0 8-13 10t-60 3h-37q-6 6-6 8t2 19q4 13 10 19h17q40-2 140-2h65q25 0 36 1t12 0q14 0 14-9 0-2-2-14-5-19-10-21-3-1-15-1-20 0-41-3-7-3-10-9t-14-51q-9-33-15-56Q589 6 586 3q-2-2-5-2-10 0-28 20t-23 31q0 1-2 0t-6-5q-74-69-200-69-121 0-196 77T50 252z"/><path id="d" stroke-width="1" d="M78 250q0 24 17 42t43 18q24 0 42-16t19-43q0-25-17-43t-43-18-43 17-18 43z"/><path id="e" stroke-width="1" d="M21 287q1 6 3 16t12 38 20 47 32 37 44 17 43-7 30-18 16-22 8-19l2-7q0-2 1-2l11 11q60 64 141 64 17 0 31-2t26-7 19-10 15-12 10-13 8-13 4-12 3-9 2-7l8 10q63 75 149 75 54 0 87-27t34-79q0-51-38-158T704 50q1-14 5-19t15-5q28 0 52 30t39 82q3 11 6 13t16 2q20 0 20-8 0-1-4-15-8-29-22-57t-46-56-69-27q-47 0-68 27t-21 56q0 19 36 120t37 152q0 59-44 59h-5q-86 0-145-101l-7-12-33-134Q433 26 428 16q-13-27-43-27-13 0-21 7T353 8t-3 10q0 11 34 143l36 146q3 15 3 38 0 59-44 59h-5q-86 0-145-101l-7-12-33-134Q156 26 151 16q-13-27-43-27-13 0-21 6T76 7t-2 10q0 13 38 164 39 154 39 161 3 15 3 27 0 36-25 36-22 0-37-28t-23-61-12-36q-2-2-16-2H27q-6 6-6 9z"/><path id="f" stroke-width="1" d="M213 578l-13-5q-14-5-40-10t-58-7H83v46h19q47 2 87 15t56 24 28 22q2 3 12 3 9 0 17-6V361l1-300q7-7 12-9t24-4 62-2h26V0h-11q-21 3-159 3-136 0-157-3H88v46h64q16 0 25 1t16 3 8 2 6 5 6 4v517z"/><path id="g" stroke-width="1" d="M109 429q-27 0-43 18t-16 44q0 71 53 123t132 52q91 0 152-56t62-145q0-43-20-82t-48-68-80-74q-36-31-100-92l-59-56 76-1q157 0 167 5 7 2 24 89v3h40v-3q-1-3-13-91T421 3V0H50v31q0 7 6 15t30 35q29 32 50 56 9 10 34 37t34 37 29 33 28 34 23 30 21 32 15 29 13 32 7 30 3 33q0 63-34 109t-97 46q-33 0-58-17t-35-33-10-19q0-1 5-1 18 0 37-14t19-46q0-25-16-42t-45-18z"/><path id="h" stroke-width="1" d="M21 287q1 3 2 8t5 22 10 31 15 33 20 30 26 22 33 9q29 0 51-12t31-22 11-20q2-6 3-6t8 7q48 52 111 52h3q48 0 72-41 8-19 8-37 0-30-13-48t-26-23-25-4q-20 0-32 11t-12 29q0 48 56 64-22 13-36 13-56 0-103-74-10-16-15-33t-34-133Q156 25 151 16q-13-27-43-27-13 0-21 6T76 7t-2 10q0 13 40 172t40 177q0 39-26 39-21 0-36-28t-24-61-11-36q-2-2-16-2H27q-6 6-6 9z"/></defs><g fill="currentColor" stroke="currentColor" stroke-width="0" transform="scale(1 -1)"><use xlink:href="#a"/><use x="1027" xlink:href="#b"/><path stroke="none" d="M2202 220h5017v60H2202z"/><g transform="translate(2262 676)"><use xlink:href="#c"/><use x="1008" xlink:href="#d"/><g transform="translate(1509)"><use xlink:href="#e"/><use x="1242" y="-213" transform="scale(.707)" xlink:href="#f"/></g><use x="3064" xlink:href="#d"/><g transform="translate(3564)"><use xlink:href="#e"/><use x="1242" y="-213" transform="scale(.707)" xlink:href="#g"/></g></g><g transform="translate(4257 -736)"><use xlink:href="#h"/><use x="638" y="408" transform="scale(.707)" xlink:href="#g"/></g></g></svg>